<svg width="51" height="51" viewBox="0 0 51 51" fill="none" xmlns="http://www.w3.org/2000/svg">
<path d="M43.0645 8.62952H14.1696C13.6285 8.63108 13.0969 8.77197 12.6261 9.03862C12.1552 9.30527 11.761 9.6887 11.4813 10.152L2.53288 25.0648C2.3864 25.3085 2.30902 25.5876 2.30902 25.872C2.30902 26.1564 2.3864 26.4355 2.53288 26.6793L11.4813 41.5921C11.761 42.0553 12.1552 42.4388 12.6261 42.7054C13.0969 42.9721 13.6285 43.113 14.1696 43.1145H43.0645C43.896 43.1145 44.6934 42.7842 45.2813 42.1963C45.8692 41.6084 46.1995 40.811 46.1995 39.9795V11.7645C46.1995 10.9331 45.8692 10.1357 45.2813 9.54774C44.6934 8.95981 43.896 8.62952 43.0645 8.62952ZM43.0645 39.9795H14.1696L5.7051 25.872L14.1696 11.7645H43.0645V39.9795ZM21.578 29.4655L25.1735 25.872L21.578 22.2785C21.2839 21.9844 21.1186 21.5855 21.1186 21.1695C21.1186 20.7536 21.2839 20.3546 21.578 20.0605C21.8721 19.7664 22.271 19.6011 22.687 19.6011C23.103 19.6011 23.5019 19.7664 23.796 20.0605L27.3895 23.656L30.983 20.0605C31.1286 19.9149 31.3015 19.7993 31.4918 19.7205C31.6821 19.6417 31.886 19.6011 32.092 19.6011C32.298 19.6011 32.5019 19.6417 32.6922 19.7205C32.8825 19.7993 33.0554 19.9149 33.201 20.0605C33.3466 20.2061 33.4622 20.379 33.541 20.5693C33.6198 20.7596 33.6604 20.9636 33.6604 21.1695C33.6604 21.3755 33.6198 21.5794 33.541 21.7697C33.4622 21.96 33.3466 22.1329 33.201 22.2785L29.6056 25.872L33.201 29.4655C33.3466 29.6111 33.4622 29.784 33.541 29.9743C33.6198 30.1646 33.6604 30.3686 33.6604 30.5745C33.6604 30.7805 33.6198 30.9844 33.541 31.1747C33.4622 31.365 33.3466 31.5379 33.201 31.6835C33.0554 31.8292 32.8825 31.9447 32.6922 32.0235C32.5019 32.1023 32.298 32.1429 32.092 32.1429C31.886 32.1429 31.6821 32.1023 31.4918 32.0235C31.3015 31.9447 31.1286 31.8292 30.983 31.6835L27.3895 28.0881L23.796 31.6835C23.6504 31.8292 23.4775 31.9447 23.2872 32.0235C23.0969 32.1023 22.893 32.1429 22.687 32.1429C22.481 32.1429 22.2771 32.1023 22.0868 32.0235C21.8965 31.9447 21.7236 31.8292 21.578 31.6835C21.4324 31.5379 21.3168 31.365 21.238 31.1747C21.1592 30.9844 21.1186 30.7805 21.1186 30.5745C21.1186 30.3686 21.1592 30.1646 21.238 29.9743C21.3168 29.784 21.4324 29.6111 21.578 29.4655Z" fill="white"/>
</svg>
