<svg width="31" height="31" viewBox="0 0 31 31" fill="none" xmlns="http://www.w3.org/2000/svg">
<path d="M9.38874 9.14201C10.874 7.65179 12.8302 6.72286 14.9238 6.5136C17.0174 6.30435 19.1187 6.82771 20.8696 7.99446C22.6205 9.16122 23.9125 10.8991 24.5253 12.9119C25.1382 14.9247 25.0339 17.0877 24.2303 19.0323C23.4268 20.9768 21.9736 22.5824 20.1187 23.5754C18.2637 24.5683 16.1218 24.8872 14.058 24.4776C11.9943 24.0679 10.1365 22.9552 8.80137 21.329C7.46627 19.7029 6.73652 17.664 6.73653 15.56C6.73653 15.3105 6.63744 15.0713 6.46106 14.895C6.28469 14.7186 6.04547 14.6195 5.79603 14.6195C5.54659 14.6195 5.30737 14.7186 5.131 14.895C4.95462 15.0713 4.85553 15.3105 4.85553 15.56C4.85543 18.0994 5.73612 20.5602 7.34745 22.5229C8.95878 24.4855 11.201 25.8286 13.6918 26.323C16.1826 26.8174 18.7678 26.4325 21.0065 25.234C23.2453 24.0356 24.9991 22.0977 25.9689 19.7507C26.9387 17.4038 27.0644 14.7932 26.3246 12.364C25.5848 9.9347 24.0254 7.83725 21.9121 6.42919C19.7989 5.02113 17.2627 4.38965 14.7359 4.64241C12.2091 4.89517 9.84821 6.01652 8.05574 7.81528C8.02416 7.84662 7.99483 7.88014 7.96796 7.9156L6.39168 6.33807C6.30738 6.25358 6.20072 6.1949 6.08423 6.16894C5.96773 6.14297 5.84625 6.1508 5.73405 6.19149C5.62185 6.23218 5.52359 6.30405 5.45083 6.39866C5.37806 6.49326 5.33381 6.60667 5.32327 6.72555L4.88061 11.6024C4.87234 11.6939 4.88427 11.786 4.91556 11.8724C4.94686 11.9588 4.99675 12.0372 5.06171 12.1022C5.12666 12.1671 5.2051 12.217 5.29148 12.2483C5.37785 12.2796 5.47004 12.2916 5.56153 12.2833L10.4396 11.8394C10.558 11.8282 10.6708 11.7836 10.7648 11.7107C10.8589 11.6379 10.9302 11.5398 10.9706 11.4279C11.0109 11.316 11.0186 11.195 10.9928 11.0789C10.9669 10.9628 10.9086 10.8564 10.8246 10.7722L9.28466 9.2323C9.32149 9.20477 9.35628 9.17459 9.38874 9.14201Z" fill="white"/>
<path d="M16.7685 9.29002C16.7685 9.04058 16.6694 8.80136 16.493 8.62498C16.3167 8.44861 16.0774 8.34952 15.828 8.34952C15.5786 8.34952 15.3394 8.44861 15.163 8.62498C14.9866 8.80136 14.8875 9.04058 14.8875 9.29002V15.56C14.8874 15.7195 14.9279 15.8763 15.0051 16.0158C15.0824 16.1554 15.1938 16.2729 15.3289 16.3576L19.0909 18.7088C19.3024 18.8412 19.5579 18.8841 19.801 18.8281C19.9215 18.8004 20.0352 18.7493 20.1359 18.6776C20.2365 18.6059 20.322 18.5151 20.3876 18.4104C20.4531 18.3056 20.4974 18.189 20.5178 18.0672C20.5383 17.9453 20.5346 17.8206 20.5069 17.7002C20.4792 17.5798 20.428 17.4661 20.3563 17.3654C20.2846 17.2648 20.1938 17.1793 20.0891 17.1137L16.7685 15.0384V9.29002Z" fill="white"/>
</svg>
