<svg width="31" height="31" viewBox="0 0 31 31" fill="none" xmlns="http://www.w3.org/2000/svg">
<path d="M10.8796 4.27402L6.36517 4.28079C5.76652 4.28079 5.1924 4.5186 4.76909 4.94191C4.34578 5.36521 4.10797 5.93934 4.10797 6.53799V11.0456C4.10811 11.5988 4.3114 12.1327 4.67924 12.5459C5.04709 12.9591 5.55386 13.2228 6.10334 13.287L6.36969 13.3028L10.8841 13.296C11.4823 13.2954 12.0559 13.0574 12.4787 12.6341C12.9015 12.2109 13.139 11.6371 13.139 11.0388V6.53347C13.1394 5.97988 12.9364 5.44543 12.5685 5.03176C12.2006 4.61808 11.6935 4.35403 11.1437 4.28982L10.8796 4.27402ZM24.4228 4.27402L19.9084 4.28079C19.3097 4.28079 18.7356 4.5186 18.3123 4.94191C17.889 5.36521 17.6512 5.93934 17.6512 6.53799V11.0456C17.6513 11.5988 17.8546 12.1327 18.2224 12.5459C18.5903 12.9591 19.0971 13.2228 19.6465 13.287L19.9129 13.3028L24.4273 13.296C25.0255 13.2954 25.5991 13.0574 26.0219 12.6341C26.4447 12.2109 26.6822 11.6371 26.6822 11.0388V6.53347C26.6826 5.97988 26.4796 5.44543 26.1117 5.03176C25.7438 4.61808 25.2367 4.35403 24.6869 4.28982L24.4228 4.27402ZM10.8796 17.8172L6.36517 17.824C5.76652 17.824 5.1924 18.0618 4.76909 18.4851C4.34578 18.9084 4.10797 19.4825 4.10797 20.0812V24.5888C4.10811 25.142 4.3114 25.6759 4.67924 26.0891C5.04709 26.5023 5.55386 26.766 6.10334 26.8302L6.36969 26.846L10.8841 26.8392C11.4823 26.8386 12.0559 26.6006 12.4787 26.1773C12.9015 25.7541 13.139 25.1803 13.139 24.582V20.0767C13.1394 19.5231 12.9364 18.9886 12.5685 18.575C12.2006 18.1613 11.6935 17.8972 11.1437 17.833L10.8796 17.8172ZM24.4228 17.8172L19.9084 17.824C19.3097 17.824 18.7356 18.0618 18.3123 18.4851C17.889 18.9084 17.6512 19.4825 17.6512 20.0812V24.5888C17.6513 25.142 17.8546 25.6759 18.2224 26.0891C18.5903 26.5023 19.0971 26.766 19.6465 26.8302L19.9129 26.846L24.4273 26.8392C25.0255 26.8386 25.5991 26.6006 26.0219 26.1773C26.4447 25.7541 26.6822 25.1803 26.6822 24.582V20.0767C26.6826 19.5231 26.4796 18.9886 26.1117 18.575C25.7438 18.1613 25.2367 17.8972 24.6869 17.833L24.4228 17.8172Z" stroke="white" stroke-width="1.881" stroke-linecap="round" stroke-linejoin="round"/>
</svg>
